<svg xmlns="http://www.w3.org/2000/svg" viewBox="0 0 32 32" width="32" height="32">
  <rect width="32" height="32" rx="7" fill="#ff2d2d"/>
  <g transform="translate(4, 4) scale(1)" fill="none" stroke="#ffffff" stroke-width="1.8" stroke-linecap="round" stroke-linejoin="round">
    <path d="M8 2l1.88 1.88M14.12 3.88 16 2M9 7.13v-1a3.003 3.003 0 1 1 6 0v1"/>
    <path d="M12 20c-3.3 0-6-2.7-6-6v-3a4 4 0 0 1 4-4h4a4 4 0 0 1 4 4v3c0 3.3-2.7 6-6 6z"/>
    <path d="M12 20v-9M6.53 9C4.6 8.8 3 7.1 3 5M6 13H2M3 21c0-2.1 1.7-3.9 3.8-4M20.97 5c0 2.1-1.6 3.8-3.5 4M22 13h-4M17.2 17c2.1.1 3.8 1.9 3.8 4"/>
  </g>
</svg>
